Coordinates
version=1
nRows=29
nColumns=24
inDegrees=yes

Units are S.I. units (second, meters, Newtons, ...)
Angles are in degrees.

endheader
time	pelvis_tilt	pelvis_list	pelvis_rotation	pelvis_tx	pelvis_ty	pelvis_tz	hip_flexion_r	hip_adduction_r	hip_rotation_r	knee_angle_r	ankle_angle_r	subtalar_angle_r	mtp_angle_r	hip_flexion_l	hip_adduction_l	hip_rotation_l	knee_angle_l	ankle_angle_l	subtalar_angle_l	mtp_angle_l	lumbar_extension	lumbar_bending	lumbar_rotation
      4.32000000	      8.94953453	      3.13205170	      1.75618358	     -1.70511102	      0.89673614	     -0.00629503	     13.72146175	     -2.42255441	     -7.32290138	     -4.25155084	     16.26786832	      2.29526386	      0.00000000	    -31.42669789	      7.15226584	     11.62717956	     -7.32059865	      9.41299153	    -16.42177146	      0.00000000	    -28.13439722	     -1.85009411	     -8.71144188
      4.33000000	      9.10899181	      2.90382731	      1.63446131	     -1.68670449	      0.89590315	     -0.00390336	     13.80587699	     -1.96772449	     -7.13067957	     -5.99148777	     15.55038420	      1.89183157	      0.00000000	    -30.40461529	      6.79629626	      7.72138556	    -11.19184714	     10.50438515	    -11.38066869	      0.00000000	    -27.95542202	     -1.67754346	     -8.40574555
      4.34000000	      9.13932893	      2.54515014	      1.45195741	     -1.66833206	      0.89503172	     -0.00138121	     14.16312515	     -1.40408769	     -6.81816805	     -8.23208817	     14.75679317	      1.59539387	      0.00000000	    -29.01432643	      6.18540298	      4.48373726	    -15.33801048	     10.26281961	     -7.75721506	      0.00000000	    -27.64550941	     -1.38464267	     -8.03668388
      4.35000000	      9.09049140	      2.09581139	      1.20575263	     -1.65012920	      0.89420884	      0.00119066	     14.73023074	     -0.77463276	     -6.43652975	    -10.86181846	     14.16357316	      1.51981396	      0.00000000	    -27.32191042	      5.42165015	      1.96284571	    -19.69558288	      8.77341558	     -5.41221546	      0.00000000	    -27.29998657	     -1.01159190	     -7.60026409
      4.36000000	      9.11470899	      1.50898032	      0.98355666	     -1.63223624	      0.89366031	      0.00363498	     15.26706411	     -0.05548337	     -6.25685486	    -13.67405999	     13.73838189	      1.66919149	      0.00000000	    -25.44652226	      4.43737573	     -0.03090721	    -24.28871266	      6.52118707	     -3.75566693	      0.00000000	    -27.13572237	     -0.45697924	     -7.12743292
      4.37000000	      9.12306948	      0.83757850	      0.85346781	     -1.61471844	      0.89327182	      0.00583382	     15.79549446	      0.68625840	     -6.29503118	    -16.49775057	     13.73379358	      2.01965458	      0.00000000	    -23.27541202	      3.29095985	     -1.49674006	    -29.10688967	      3.77606526	     -2.53096243	      0.00000000	    -27.05087043	      0.23126614	     -6.73418512
      4.38000000	      9.12697716	      0.06680226	      0.87573786	     -1.59757611	      0.89303737	      0.00768303	     16.19399382	      1.46045381	     -6.61867971	    -19.11556369	     14.18840326	      2.47431232	      0.00000000	    -20.85615631	      1.98245159	     -2.44188440	    -34.05505868	      0.96211275	     -1.51400821	      0.00000000	    -27.04454789	      1.09471165	     -6.45258324
      4.39000000	      9.13854758	     -0.80278663	      1.10818851	     -1.58078753	      0.89296243	      0.00916400	     16.34322008	      2.28035238	     -7.20719705	    -21.32860994	     15.01506124	      2.92887431	      0.00000000	    -18.24988959	      0.51506777	     -2.90532111	    -39.01299839	     -1.44066295	     -0.49459023	      0.00000000	    -27.10708467	      2.13422365	     -6.33498502
      4.40000000	      9.14061553	     -1.75517448	      1.55386855	     -1.56430948	      0.89302515	      0.01032477	     16.19427883	      3.16052411	     -8.00263890	    -23.00040454	     16.09126700	      3.27697062	      0.00000000	    -15.49668691	     -1.05491981	     -2.91401005	    -43.84368101	     -3.04692113	      0.62650063	      0.00000000	    -27.18811865	      3.32560916	     -6.35304982
      4.41000000	      9.09715112	     -2.72966399	      2.19281906	     -1.54809308	      0.89321481	      0.01125353	     15.76828478	      4.06113216	     -8.97591414	    -24.08621560	     17.32134850	      3.56377576	      0.00000000	    -12.60649584	     -2.62540373	     -2.52667286	    -48.41155902	     -3.65301441	      1.81825116	      0.00000000	    -27.21231283	      4.57479395	     -6.51949925
      4.42000000	      9.01235910	     -3.66555798	      3.00185604	     -1.53212185	      0.89360804	      0.01198852	     15.07230914	      4.94054925	    -10.07999115	    -24.58737256	     18.57270024	      3.80909603	      0.00000000	     -9.62168813	     -4.07748868	     -1.76786205	    -52.59842742	     -3.26476448	      3.05297526	      0.00000000	    -27.16714702	      5.81116309	     -6.79307007
      4.43000000	      8.88424230	     -4.49881099	      3.91172337	     -1.51636913	      0.89428641	      0.01262112	     14.14613046	      5.75674510	    -11.23950376	    -24.56193640	     19.77403545	      4.08081032	      0.00000000	     -6.58211787	     -5.30132908	     -0.75463428	    -56.30247515	     -2.06938076	      4.22757388	      0.00000000	    -27.04249618	      6.93565146	     -7.15689652
      4.44000000	      8.75077225	     -5.18451126	      4.84938556	     -1.50082414	      0.89536643	      0.01322686	     13.01187487	      6.47702897	    -12.41049076	    -24.12034177	     20.83818011	      4.35564769	      0.00000000	     -3.57332414	     -6.23796755	      0.36368345	    -59.44762101	     -0.33706881	      5.29535291	      0.00000000	    -26.89880106	      7.87615259	     -7.56701177
      4.45000000	      8.57039855	     -5.68542424	      5.72528317	     -1.48539394	      0.89686960	      0.01387491	     11.73767985	      7.08906837	    -13.43501263	    -23.32384227	     21.78025746	      4.73130985	      0.00000000	     -0.61526828	     -6.81992966	      1.47960191	    -61.97795011	      1.65885187	      6.19059067	      0.00000000	    -26.68477315	      8.56747229	     -8.00701948
      4.46000000	      8.42153486	     -5.99841194	      6.48719065	     -1.47008563	      0.89885991	      0.01460969	     10.30816606	      7.58864120	    -14.29916971	    -22.30382369	     22.51134683	      5.04954421	      0.00000000	      2.16559631	     -7.07989951	      2.46689088	    -63.88756461	      3.69574863	      6.93297246	      0.00000000	    -26.53236156	      8.99477699	     -8.35104759
      4.47000000	      8.25380997	     -6.11811338	      7.04354953	     -1.45476619	      0.90123922	      0.01552215	      8.79516666	      7.97444137	    -14.87829443	    -21.12287445	     23.07784544	      5.33731146	      0.00000000	      4.75155366	     -7.04085958	      3.19847425	    -65.16263010	      5.64285375	      7.50337762	      0.00000000	    -26.37941969	      9.12281628	     -8.57126602
      4.48000000	      8.09228496	     -6.06538128	      7.37587797	     -1.43941715	      0.90392532	      0.01662683	      7.19936171	      8.26542297	    -15.09017254	    -19.83936843	     23.47053982	      5.52170617	      0.00000000	      7.09228784	     -6.76090721	      3.64420136	    -65.83993855	      7.42092467	      7.88271255	      0.00000000	    -26.27431262	      8.97925466	     -8.63578806
      4.49000000	      7.93601799	     -5.84796142	      7.48310353	     -1.42399069	      0.90678231	      0.01793104	      5.53637614	      8.44897627	    -14.92696802	    -18.49441521	     23.75764616	      5.55650502	      0.00000000	      9.17150959	     -6.29021414	      3.78623218	    -65.95508954	      9.02520029	      8.09648400	      0.00000000	    -26.21548125	      8.57197660	     -8.51873211
      4.50000000	      7.77949386	     -5.56437563	      7.34312617	     -1.40844315	      0.90964184	      0.01950676	      3.79349615	      8.65081607	    -14.16552029	    -17.02229980	     23.72204294	      5.08694302	      0.00000000	     11.00698545	     -5.78848246	      3.59465251	    -65.56793713	     10.52527083	      8.11622899	      0.00000000	    -26.18348386	      8.00272123	     -8.14385180
      4.51000000	      7.66088282	     -5.13611766	      7.03595774	     -1.39281947	      0.91246445	      0.02121266	      1.94071434	      8.72637183	    -13.00586372	    -15.48050887	     23.59531954	      4.36427204	      0.00000000	     12.55917051	     -5.16173783	      3.15814431	    -64.69184485	     11.81485321	      7.86197847	      0.00000000	    -26.22646198	      7.22238177	     -7.65283975
      4.52000000	      7.54379647	     -4.65212949	      6.61258344	     -1.37713585	      0.91504592	      0.02300146	      0.02775392	      8.73337226	    -11.56462248	    -13.85937612	     23.33318765	      3.44532934	      0.00000000	     13.92173932	     -4.51676166	      2.53625160	    -63.40560762	     12.93830474	      7.37050636	      0.00000000	    -26.28187967	      6.34489786	     -7.06983211
      4.53000000	      7.36697267	     -4.12505895	      6.18506113	     -1.36146061	      0.91718058	      0.02470279	     -1.86227164	      8.66043563	     -9.94962267	    -12.16591799	     22.98463002	      2.14972952	      0.00000000	     15.21440435	     -3.82083177	      1.87569649	    -61.77765411	     13.96713810	      6.76580195	      0.00000000	    -26.26949950	      5.44052205	     -6.47345630
      4.54000000	      7.19425282	     -3.58485408	      5.74987978	     -1.34577588	      0.91890192	      0.02632153	     -3.78485874	      8.51331528	     -8.37317882	    -10.42443397	     22.59303273	      0.87742217	      0.00000000	     16.37006515	     -3.12781113	      1.16207365	    -59.81649196	     14.82132815	      5.96847557	      0.00000000	    -26.25729221	      4.53382392	     -5.84029681
      4.55000000	      6.99785399	     -3.05793736	      5.36537339	     -1.33013903	      0.92010916	      0.02776217	     -5.67732656	      8.31101964	     -7.01014981	     -8.66943049	     22.22814066	     -0.30682375	      0.00000000	     17.45127686	     -2.43003754	      0.48961684	    -57.56354224	     15.48832098	      5.03124748	      0.00000000	    -26.22065215	      3.68470358	     -5.23453992
      4.56000000	      6.76612258	     -2.56669963	      5.05279502	     -1.31452630	      0.92075684	      0.02900052	     -7.50784812	      8.08520183	     -5.97246693	     -6.93061106	     21.94154926	     -1.28421771	      0.00000000	     18.47845905	     -1.74253095	     -0.10737564	    -55.04289454	     15.98351663	      4.00679347	      0.00000000	    -26.13102431	      2.92450742	     -4.66131720
      4.57000000	      6.50559027	     -2.14205860	      4.82550497	     -1.29898252	      0.92084802	      0.02996353	     -9.21716060	      7.86575990	     -5.62318378	     -5.31186434	     21.96850255	     -1.50796268	      0.00000000	     19.45309266	     -1.06758832	     -0.56877132	    -52.27126627	     16.27302831	      2.83437353	      0.00000000	    -26.01543848	      2.30834764	     -4.12448158
      4.58000000	      6.25669212	     -1.74277109	      4.68982797	     -1.28341548	      0.92044027	      0.03077975	    -10.98358118	      7.69359570	     -5.12235233	     -3.60276598	     21.70406295	     -2.34121480	      0.00000000	     20.30525014	     -0.40094487	     -0.92804341	    -49.25130973	     16.57326748	      1.96519755	      0.00000000	    -25.90406881	      1.75447120	     -3.65321010
      4.59000000	      5.98338956	     -1.45268140	      4.59529277	     -1.26786347	      0.91951650	      0.03138249	    -12.60547264	      7.60150283	     -5.20603744	     -2.08731007	     21.81104094	     -2.31970829	      0.00000000	     21.08016599	      0.20384839	     -1.14637056	    -45.99853998	     16.71689894	      1.00508086	      0.00000000	    -25.76170106	      1.37741529	     -3.17021994
      4.60000000	      5.78771113	     -1.20893874	      4.56020133	     -1.25227241	      0.91824754	      0.03181301	    -14.28549908	      7.57013501	     -5.33376098	     -0.62677366	     21.84198124	     -2.36789746	      0.00000000	     21.63336166	      0.79052764	     -1.22621304	    -42.50052801	     16.86591081	      0.27764376	      0.00000000	    -25.71073575	      1.09709821	     -2.72714930
